<svg width="1200" height="300" viewBox="0 0 1200 300" xmlns="http://www.w3.org/2000/svg" font-family="'Courier New', monospace">
  <defs>
    <linearGradient id="bg" x1="0" y1="0" x2="1200" y2="300" gradientUnits="userSpaceOnUse">
      <stop offset="0" stop-color="#0d1117"></stop>
      <stop offset="1" stop-color="#161b2e"></stop>
    </linearGradient>
    <clipPath id="round"><rect x="0" y="0" width="1200" height="300" rx="14"></rect></clipPath>

  </defs>

  <g clip-path="url(#round)">
    <rect width="1200" height="300" fill="url(#bg)"></rect>


    <g fill="#233047" opacity="0.6">
      <rect x="20" y="20" width="4" height="4"></rect><rect x="60" y="20" width="4" height="4"></rect><rect x="100" y="20" width="4" height="4"></rect>
      <rect x="20" y="60" width="4" height="4"></rect><rect x="140" y="60" width="4" height="4"></rect>
      <rect x="20" y="100" width="4" height="4"></rect><rect x="80" y="100" width="4" height="4"></rect>
    </g>


    <g fill="#e8eef7">
      <rect class="twinkle" x="90" y="34" width="6" height="6"></rect>
      <rect class="twinkle2" x="180" y="60" width="4" height="4"></rect>
      <rect class="twinkle3" x="260" y="28" width="5" height="5"></rect>
      <rect class="twinkle" x="1000" y="40" width="5" height="5"></rect>
      <rect class="twinkle2" x="1060" y="90" width="4" height="4"></rect>
      <rect class="twinkle3" x="940" y="70" width="6" height="6"></rect>
      <rect class="twinkle" x="1120" y="50" width="4" height="4"></rect>
      <rect class="twinkle2" x="600" y="24" width="5" height="5"></rect>
    </g>


    <g fill="#1b2b22" opacity="0.9">
      <rect x="0" y="250" width="1200" height="50"></rect>
      <rect x="0" y="238" width="40" height="12"></rect><rect x="40" y="226" width="40" height="24"></rect>
      <rect x="900" y="232" width="60" height="18"></rect><rect x="960" y="220" width="50" height="30"></rect>
      <rect x="1080" y="238" width="70" height="12"></rect>
    </g>
    <g fill="#25402f">
      <rect x="0" y="256" width="60" height="4"></rect><rect x="70" y="256" width="40" height="4"></rect>
      <rect x="850" y="256" width="50" height="4"></rect><rect x="1000" y="256" width="60" height="4"></rect>
      <rect x="1120" y="256" width="60" height="4"></rect>
    </g>


    <g transform="translate(60,86)">
      <rect x="0" y="0" width="560" height="150" rx="8" fill="#0a0e14" stroke="#2b3a55" stroke-width="2"></rect>
      <rect x="0" y="0" width="560" height="28" rx="8" fill="#182338"></rect>
      <rect x="14" y="10" width="10" height="10" fill="#ff5f56"></rect>
      <rect x="32" y="10" width="10" height="10" fill="#ffbd2e"></rect>
      <rect x="50" y="10" width="10" height="10" fill="#27c93f"></rect>
      <text x="280" y="19" fill="#5b6b8c" font-size="12" text-anchor="middle">siddharth@dev ~ </text>

      <text x="20" y="60" font-size="18" fill="#3fd67a">$ whoami</text>
      <text x="20" y="90" font-size="18" fill="#e8eef7" class="type">&gt; Siddharth G — builder &amp; designer_</text>
      <rect x="17" y="98" width="10" height="18" class="screenglow cursor"></rect>
      <text x="20" y="124" font-size="13" fill="#5b6b8c">NIT Trichy · ECE · Product + Full-Stack</text>
    </g>


    <g transform="translate(870,70) scale(1.35)" class="float">

      <rect x="-10" y="118" width="180" height="10" fill="#3a2a1e"></rect>
      <rect x="0" y="128" width="10" height="30" fill="#2a1d14"></rect>
      <rect x="150" y="128" width="10" height="30" fill="#2a1d14"></rect>

      <rect x="20" y="60" width="90" height="60" fill="#12181f" stroke="#39506e" stroke-width="3"></rect>
      <rect x="28" y="68" width="74" height="44" fill="#0c3d24"></rect>
      <rect x="34" y="76" width="40" height="6" class="screenglow"></rect>
      <rect x="34" y="86" width="26" height="6" fill="#2f9e5c"></rect>
      <rect x="34" y="96" width="50" height="6" fill="#3fd67a" opacity="0.7"></rect>
      <rect x="58" y="120" width="14" height="10" fill="#39506e"></rect>
      <rect x="40" y="130" width="50" height="6" fill="#2a1d14"></rect>

      <rect x="120" y="70" width="34" height="34" fill="#8a5a3c"></rect>
      <rect x="126" y="58" width="22" height="18" fill="#3a2a20"></rect>
      <rect x="120" y="104" width="34" height="30" fill="#e8e2d4"></rect>
      <rect x="112" y="108" width="10" height="20" fill="#8a5a3c"></rect>
      <rect x="156" y="108" width="10" height="20" fill="#8a5a3c"></rect>

      <rect x="-4" y="96" width="16" height="20" fill="#5a4530"></rect>
      <rect x="-8" y="72" width="8" height="8" fill="#4a9a4f"></rect>
      <rect x="0" y="64" width="8" height="8" fill="#5fbf63"></rect>
      <rect x="8" y="76" width="8" height="8" fill="#4a9a4f"></rect>
      <rect x="-2" y="80" width="8" height="8" fill="#3f8a45"></rect>
    </g>
  </g>

  <rect x="1" y="1" width="1198" height="298" rx="14" fill="none" stroke="#2b3a55" stroke-width="2"></rect>
</svg>